<svg width="23" height="25" viewBox="0 0 23 25" fill="none" xmlns="http://www.w3.org/2000/svg">
    <path fill-rule="evenodd" clip-rule="evenodd" d="M4.89211 6.73107C5.19237 6.66286 5.491 6.85126 5.55913 7.15188L7.10151 13.9577C7.12079 14.0428 7.11989 14.1312 7.09887 14.2158C7.09364 14.2369 7.08803 14.2545 7.08361 14.2673L6.69932 15.6459H17.2668C17.5747 15.6459 17.8243 15.8958 17.8243 16.2041C17.8243 16.5123 17.5747 16.7622 17.2668 16.7622H6.65447C5.9729 16.7622 5.4566 16.1347 5.59474 15.4609C5.59734 15.4481 5.60039 15.4355 5.60387 15.423L5.98247 14.0648L4.47179 7.39887C4.40366 7.09826 4.59185 6.79928 4.89211 6.73107ZM7.0729 14.2961L7.07381 14.2937C7.07308 14.2956 7.0729 14.2961 7.0729 14.2961Z" fill="#565C70"/>
    <path fill-rule="evenodd" clip-rule="evenodd" d="M2 5.05814C2 4.74989 2.2496 4.5 2.55749 4.5H4.76068C5.3211 4.5 5.80824 4.89244 5.92459 5.44442C5.94065 5.5206 5.94061 5.59931 5.92447 5.67548L5.70377 6.71721H19.1193C19.4272 6.71721 19.6768 6.96709 19.6768 7.27535C19.6768 7.5836 19.4272 7.83349 19.1193 7.83349H5.01564C4.84748 7.83349 4.68831 7.7575 4.58246 7.62669C4.47661 7.49588 4.43539 7.32422 4.47028 7.15954L4.79542 5.62484C4.78502 5.61938 4.77319 5.61628 4.76068 5.61628H2.55749C2.2496 5.61628 2 5.36639 2 5.05814Z" fill="#565C70"/>
    <path fill-rule="evenodd" clip-rule="evenodd" d="M19.588 5.54928C19.8852 5.62982 20.0609 5.93632 19.9805 6.23387L18.2648 12.5796C18.1381 13.1007 17.6798 13.4734 17.144 13.4889L6.61804 14.6359C6.31195 14.6693 6.03682 14.4479 6.0035 14.1415C5.97019 13.835 6.19131 13.5596 6.4974 13.5262L17.0488 12.3764C17.0688 12.3742 17.089 12.3731 17.1091 12.3731C17.1433 12.3731 17.1735 12.35 17.1817 12.3148C17.1832 12.3085 17.1848 12.3022 17.1864 12.2959L18.9043 5.94221C18.9847 5.64466 19.2908 5.46875 19.588 5.54928Z" fill="#565C70"/>
    <path fill-rule="evenodd" clip-rule="evenodd" d="M5.59155 18.8115C5.59155 17.8802 6.34542 17.1238 7.27665 17.1238C8.20687 17.1238 8.96026 17.8807 8.96026 18.8115C8.96026 19.7429 8.20711 20.5 7.27665 20.5C6.34518 20.5 5.59155 19.7434 5.59155 18.8115ZM7.27665 18.2401C6.96208 18.2401 6.70652 18.4958 6.70652 18.8115C6.70652 19.1283 6.96232 19.3837 7.27665 19.3837C7.58902 19.3837 7.84529 19.1287 7.84529 18.8115C7.84529 18.4953 7.58926 18.2401 7.27665 18.2401Z" fill="#565C70"/>
    <path fill-rule="evenodd" clip-rule="evenodd" d="M14.4556 18.8115C14.4556 17.8804 15.2092 17.1238 16.1399 17.1238C17.0706 17.1238 17.8243 17.8804 17.8243 18.8115C17.8243 19.7432 17.0709 20.5 16.1399 20.5C15.2089 20.5 14.4556 19.7432 14.4556 18.8115ZM16.1399 18.2401C15.8263 18.2401 15.5705 18.4956 15.5705 18.8115C15.5705 19.1285 15.8266 19.3837 16.1399 19.3837C16.4533 19.3837 16.7093 19.1285 16.7093 18.8115C16.7093 18.4956 16.4535 18.2401 16.1399 18.2401Z" fill="#565C70"/>
</svg>
