<svg width="74" height="27" viewBox="0 0 74 27" fill="none" xmlns="http://www.w3.org/2000/svg">
    <path d="M57.7725 6.65868L64.1864 6.54618C63.9306 7.38989 61.1777 16.5543 61.1777 17.5384C61.1777 18.1292 61.348 18.3537 61.66 18.3537C62.5966 18.3537 65.1032 13.4296 65.4714 12.8393L65.0657 15.9362C64.1859 17.9327 62.483 20.153 60.0421 20.153C58.3398 20.153 57.0906 19.169 57.0906 17.2855C57.0906 14.7271 59.2477 10.0324 59.2477 8.62623C59.2477 7.95181 58.907 7.72682 57.4881 7.67003L57.7725 6.65868ZM62.994 0.473145C64.1296 0.473145 65.2647 1.40095 65.2647 2.63784C65.2647 3.87472 64.1296 4.80253 62.994 4.80253C61.859 4.80253 60.724 3.87472 60.724 2.63784C60.724 1.40149 61.859 0.473145 62.994 0.473145Z"
          fill="black"/>
    <path d="M70.935 6.60268H74L73.7167 7.78332H70.5943L68.4092 15.683C68.2102 16.3574 67.9268 17.342 67.9268 18.0449C67.9268 18.4386 68.0966 18.8039 68.5508 18.8039C69.9698 18.8039 71.0767 16.4421 71.5872 15.4586L72.5237 15.9648C71.7007 17.9608 70.225 20.1538 67.8132 20.1538C65.7416 20.1538 64.4644 18.467 64.4644 16.5273C64.4644 15.5716 64.6628 14.6433 64.918 13.716L66.5641 7.78387H64.2372L64.5211 6.60323H66.9048L67.9836 2.72382L72.0414 2.61133L70.935 6.60268Z"
          fill="black"/>
    <path d="M0 0H6.02855C12.2864 0 16.4776 4.33211 16.4776 10.0458C16.4776 15.6798 12.1718 20.0381 5.99988 20.0381H0V0ZM4.21987 16.636H4.90894C10.1051 16.636 12.1139 13.9782 12.1139 10.0185C12.1139 5.6602 9.70267 3.40158 4.90894 3.40158H4.21987V16.636Z"
          fill="black"/>
    <path d="M21.3003 8.34463H21.3577C22.1614 7.20222 23.367 6.56384 24.8598 6.56384C25.4342 6.56384 26.0081 6.69709 26.5246 6.8833L26.0367 10.3379C25.5483 10.0189 24.9745 9.85948 24.3714 9.85948C21.587 9.85948 21.2998 12.1449 21.2998 14.1643V20.0375H17.2811V6.98924H21.2998V8.34463H21.3003Z"
          fill="black"/>
    <path d="M41.0363 13.5268C41.0363 17.5662 38.0512 20.4627 33.6301 20.4627C29.2091 20.4627 26.224 17.5662 26.224 13.5268C26.224 9.46066 29.2383 6.56421 33.6301 6.56421C38.022 6.56421 41.0363 9.46066 41.0363 13.5268ZM30.3 13.5268C30.3 15.2809 31.5635 17.1676 33.6301 17.1676C35.6973 17.1676 36.9597 15.2809 36.9597 13.5268C36.9597 11.7198 35.6968 9.85985 33.6301 9.85985C31.5629 9.8593 30.3 11.7193 30.3 13.5268Z"
          fill="black"/>
    <path d="M45.822 8.18518C46.7404 7.17546 48.2332 6.56384 49.726 6.56384C53.716 6.56384 56.1564 10.0189 56.1564 13.4473C56.1564 17.0083 53.802 20.4629 49.64 20.4629C48.2045 20.4629 46.6831 19.878 45.8793 18.8153H45.822V27.0001H41.8033V6.98924H45.822V8.18518ZM52.0799 13.5002C52.0799 11.7462 50.8169 9.85948 48.7503 9.85948C46.6836 9.85948 45.4201 11.7462 45.4201 13.5002C45.4201 15.2543 46.6831 17.1678 48.7503 17.1678C50.8169 17.1678 52.0799 15.2543 52.0799 13.5002Z"
          fill="black"/>
</svg>
